<svg xmlns="http://www.w3.org/2000/svg" xmlns:xlink="http://www.w3.org/1999/xlink" width="470.699" height="137.364" viewBox="0 0 470.699 137.364">
  <defs>
    <linearGradient id="linear-gradient" x1="-0.616" y1="-0.138" x2="-0.616" y2="0.866" gradientUnits="objectBoundingBox">
      <stop offset="0" stop-color="#7ef400"/>
      <stop offset="0.5" stop-color="#5dc327"/>
      <stop offset="1" stop-color="#459b34"/>
    </linearGradient>
    <linearGradient id="linear-gradient-2" x1="0.5" x2="0.5" y2="1.002" gradientUnits="objectBoundingBox">
      <stop offset="0" stop-color="#ff243e"/>
      <stop offset="0.5" stop-color="#fe9193"/>
      <stop offset="1" stop-color="#b00018"/>
    </linearGradient>
    <linearGradient id="linear-gradient-3" x1="0.71" y1="-0.113" x2="0.71" y2="1.016" xlink:href="#linear-gradient-2"/>
    <linearGradient id="linear-gradient-4" x1="-0.608" y1="-0.186" x2="-0.608" y2="0.942" xlink:href="#linear-gradient-2"/>
  </defs>
  <g id="b" transform="translate(-0.001 0.01)">
    <g id="c" transform="translate(0.001 -0.01)">
      <g id="Group_9280" data-name="Group 9280">
        <path id="Path_19383" data-name="Path 19383" d="M156.536,11.431c20.419,14.842,13.18,41.9-8.043,68.5-13.839,17.342-33.2,32.851-41.305,59.355C86.165,55.264,121.866-13.769,156.536,11.431Z" transform="translate(-31.604 -1.925)" opacity="0.9" fill="url(#linear-gradient)"/>
        <path id="Path_19384" data-name="Path 19384" d="M37.345,20.382C17.853,34.394,24.6,60.156,44.653,85.555c13.07,16.559,31.408,31.4,38.977,56.642C104.043,62.409,70.443-3.4,37.345,20.382Z" transform="translate(-8.053 -4.833)" opacity="0.9" fill="url(#linear-gradient-2)"/>
        <path id="Path_19385" data-name="Path 19385" d="M5.1,63.832c-12.61,16.477-.563,36.093,22.4,52.075C42.46,126.326,62.989,135.825,75.585,154.8,72.446,83.689,26.5,35.858,5.1,63.832Z" transform="translate(-0.001 -17.445)" opacity="0.9" fill="url(#linear-gradient-3)"/>
        <path id="Path_19386" data-name="Path 19386" d="M180.058,63.832c12.61,16.477.563,36.092-22.4,52.075-14.966,10.419-35.014,19.918-47.61,38.895,3.139-71.12,48.606-118.944,70.008-90.97Z" transform="translate(-34.466 -17.444)" opacity="0.9" fill="url(#linear-gradient-4)"/>
        <g id="Group_9277" data-name="Group 9277" transform="translate(170.152)">
          <path id="Path_19387" data-name="Path 19387" d="M252.946,0a7.053,7.053,0,0,1,2.047.3,4.226,4.226,0,0,1,2.782,2.631,6.97,6.97,0,0,1,.4,2.514v8.056a7,7,0,0,1-.4,2.514,4.226,4.226,0,0,1-2.782,2.631,6.827,6.827,0,0,1-2.047.3h-4.581a.59.59,0,0,1-.453-.172.536.536,0,0,1-.172-.378V.539a.52.52,0,0,1,.172-.378.616.616,0,0,1,.453-.172h4.581ZM249.038,1.24V17.683h3.908a3.97,3.97,0,0,0,2.9-1.01,4.277,4.277,0,0,0,1.037-3.187V5.436a4.277,4.277,0,0,0-1.037-3.187,3.981,3.981,0,0,0-2.9-1.01h-3.908Z" transform="translate(-247.74 0.01)"/>
          <path id="Path_19388" data-name="Path 19388" d="M272.156,9.537a4.4,4.4,0,0,1,1.813.378,5.142,5.142,0,0,1,1.518,1.01,4.862,4.862,0,0,1,1.051,1.5,4.447,4.447,0,0,1,.392,1.854v3a4.335,4.335,0,0,1-.392,1.8,5.123,5.123,0,0,1-1.051,1.525,5.357,5.357,0,0,1-1.518,1.065,4.209,4.209,0,0,1-1.813.4,4.3,4.3,0,0,1-1.813-.391,5.028,5.028,0,0,1-1.5-1.051A5.21,5.21,0,0,1,267.8,19.1a4.39,4.39,0,0,1-.392-1.827v-3a4.4,4.4,0,0,1,.378-1.813,4.827,4.827,0,0,1,1.023-1.5,5.113,5.113,0,0,1,1.5-1.037,4.361,4.361,0,0,1,1.841-.391Zm3.5,4.739a3.2,3.2,0,0,0-.275-1.3,3.815,3.815,0,0,0-.749-1.14,3.776,3.776,0,0,0-1.113-.8,3.168,3.168,0,0,0-1.36-.3,3.271,3.271,0,0,0-1.36.3,3.47,3.47,0,0,0-1.1.8,3.91,3.91,0,0,0-.735,1.14,3.345,3.345,0,0,0-.275,1.3v3a3.372,3.372,0,0,0,.275,1.346,3.888,3.888,0,0,0,.735,1.154,3.549,3.549,0,0,0,1.1.8,3.279,3.279,0,0,0,2.72,0,3.608,3.608,0,0,0,1.113-.8,3.794,3.794,0,0,0,.749-1.154,3.494,3.494,0,0,0,.275-1.346v-3Z" transform="translate(-253.9 -2.978)"/>
          <path id="Path_19389" data-name="Path 19389" d="M293.4,20.471a.822.822,0,0,1-.22.5,2.209,2.209,0,0,1-.646.495,4.736,4.736,0,0,1-1.037.405,4.912,4.912,0,0,1-1.36.172l-.364,1.525a2.61,2.61,0,0,1,1.889.563,1.7,1.7,0,0,1,.57,1.236,1.926,1.926,0,0,1-.556,1.332,2.138,2.138,0,0,1-1.641.6,4.812,4.812,0,0,1-.57-.041,4.679,4.679,0,0,1-.646-.117,2.6,2.6,0,0,1-.529-.192c-.144-.076-.22-.172-.22-.275a.8.8,0,0,1,.1-.337c.069-.137.158-.206.261-.206a1.254,1.254,0,0,1,.467.172,2.289,2.289,0,0,0,.982.172,1.516,1.516,0,0,0,1.085-.316,1.034,1.034,0,0,0,.309-.742.912.912,0,0,0-.467-.852,2.552,2.552,0,0,0-1.271-.268h-.852l.543-2.28a4.522,4.522,0,0,1-1.93-.378,3.976,3.976,0,0,1-1.36-1.016,4.09,4.09,0,0,1-.8-1.484,6.262,6.262,0,0,1-.261-1.834V14.338a6.262,6.262,0,0,1,.282-1.9,3.87,3.87,0,0,1,.893-1.518,4.4,4.4,0,0,1,1.525-1.016,5.615,5.615,0,0,1,2.164-.378,5.555,5.555,0,0,1,1.449.172,5.462,5.462,0,0,1,1.1.4,2.559,2.559,0,0,1,.7.5.781.781,0,0,1,.247.508.614.614,0,0,1-.172.426.531.531,0,0,1-.426.192.6.6,0,0,1-.35-.158,5.2,5.2,0,0,0-.508-.35,3.556,3.556,0,0,0-.8-.35,4.113,4.113,0,0,0-1.216-.158,3.583,3.583,0,0,0-2.706.962,3.665,3.665,0,0,0-.92,2.644V17.27a3.676,3.676,0,0,0,.92,2.644,3.619,3.619,0,0,0,2.734.962,4.482,4.482,0,0,0,1.284-.158,3.824,3.824,0,0,0,.831-.35,4.339,4.339,0,0,0,.529-.364.652.652,0,0,1,.391-.172.481.481,0,0,1,.4.213.688.688,0,0,1,.172.419Z" transform="translate(-259.371 -2.978)"/>
          <path id="Path_19390" data-name="Path 19390" d="M300.988,24.7a1.015,1.015,0,0,1,.728.309,1.061,1.061,0,0,1,0,1.5.992.992,0,0,1-.728.309,1.014,1.014,0,0,1-.762-.309,1.1,1.1,0,0,1,0-1.5A1.014,1.014,0,0,1,300.988,24.7Z" transform="translate(-264.085 -7.729)"/>
          <path id="Path_19391" data-name="Path 19391" d="M320.286,0a7.054,7.054,0,0,1,2.047.3,4.226,4.226,0,0,1,2.782,2.631,6.969,6.969,0,0,1,.4,2.514v8.056a7,7,0,0,1-.4,2.514,4.226,4.226,0,0,1-2.782,2.631,6.828,6.828,0,0,1-2.047.3H315.7a.59.59,0,0,1-.453-.172.535.535,0,0,1-.172-.378V.539a.52.52,0,0,1,.172-.378A.616.616,0,0,1,315.7-.01h4.581ZM316.378,1.24V17.683h3.908a3.97,3.97,0,0,0,2.9-1.01,4.277,4.277,0,0,0,1.037-3.187V5.436a4.277,4.277,0,0,0-1.037-3.187,3.981,3.981,0,0,0-2.9-1.01h-3.908Z" transform="translate(-268.829 0.01)"/>
          <path id="Path_19392" data-name="Path 19392" d="M339.987,10.728a3.4,3.4,0,0,0-1.3.261,3.529,3.529,0,0,0-1.113.749,3.705,3.705,0,0,0-.79,1.188,4,4,0,0,0-.3,1.58V21.34a.57.57,0,0,1-.179.391.621.621,0,0,1-.467.179.594.594,0,0,1-.453-.179.579.579,0,0,1-.172-.391V10.213a.46.46,0,0,1,.172-.378.665.665,0,0,1,.453-.144.69.69,0,0,1,.44.144.447.447,0,0,1,.179.378v1.319a4.516,4.516,0,0,1,1.319-1.374,3.731,3.731,0,0,1,2.2-.618h.934a.52.52,0,0,1,.4.172.585.585,0,0,1,.172.426.559.559,0,0,1-.172.426.569.569,0,0,1-.4.172h-.934Z" transform="translate(-275.137 -2.981)"/>
        </g>
        <g id="Group_9278" data-name="Group 9278" transform="translate(160.681 26.099)">
          <path id="Path_19393" data-name="Path 19393" d="M265.53,41.59h.158c2.576,0,8.29.508,10.028,2.424a1.851,1.851,0,0,1,.446,1.264c0,5.536-18.7,19.272-21.271,21.25-4.67,3.6-6.978,6-10.756,8.139a90.2,90.2,0,0,1,11.181-.687c8.4,0,17.871,1.243,18.18,6.312-.041.268-.488.467-.824.467-.22,0-.419-.089-.419-.309a.21.21,0,0,1,.021-.11c-.021-4.176-6.8-5.4-14.334-5.4A104.83,104.83,0,0,0,239.582,76.7l-.247.021a11.038,11.038,0,0,1-4.2,1.332h-.069c-.755-.021-1.113-.22-1.113-.577v-.021c0-.446,2.047-1.065,5.2-1.6a94.443,94.443,0,0,0,15.474-9.6c2.109-1.6,20.275-16.518,20.275-20.694a.988.988,0,0,0-.22-.666c-1.422-1.6-6.491-1.8-8.846-1.8h-.4c-8.469.069-19.293,2.2-22.294,5.865.378.2.508.426.508.646,0,.556-.975,1.092-1.69,1.092-.426,0-.735-.179-.735-.625a1.586,1.586,0,0,1,.13-.577c2.047-4.464,14.849-7.823,24.183-7.892Z" transform="translate(-233.95 -39.117)"/>
          <path id="Path_19394" data-name="Path 19394" d="M286.693,69.954c0,1.868-3,3.07-3.626,3.31,0,.13-.021.288-.021.446a2.99,2.99,0,0,0,.357,1.559,1.55,1.55,0,0,0,1.4.646c3.07,0,9.2-4.622,9.224-4.643a.419.419,0,0,1,.268-.089.56.56,0,0,1,.536.536.42.42,0,0,1-.179.309c-.041.021-6.023,4.334-9.67,4.334a2.481,2.481,0,0,1-2.246-1.044,3.414,3.414,0,0,1-.577-1.937,5.315,5.315,0,0,1,1.353-3.29,4.65,4.65,0,0,1,1.243-1.044,1.757,1.757,0,0,1,.886-.268.981.981,0,0,1,.446.089.969.969,0,0,1,.577.845c0,.089.021.158.021.247Zm-1.353,0a.062.062,0,0,0-.069-.069c-.446.069-.865.886-1.889,2.225C284.8,70.889,285.34,70.154,285.34,69.954Z" transform="translate(-249.048 -47.633)"/>
          <path id="Path_19395" data-name="Path 19395" d="M307.793,48.053c0,4.025-7.96,16.092-8.221,16.092l-.11.309c-.556,1.69-1,3.043-1.422,4.6.625-.934,4.265-6.223,6.36-6.223a1.105,1.105,0,0,1,1,.666.659.659,0,0,1,.041.309c0,.735-.4,2.335-.4,3.468a1.407,1.407,0,0,0,.357,1.154.781.781,0,0,0,.426.11,7.309,7.309,0,0,0,2.4-.886,20.575,20.575,0,0,0,4.712-3.359.388.388,0,0,1,.289-.131.446.446,0,0,1,.426.446.518.518,0,0,1-.11.337,21.045,21.045,0,0,1-4.911,3.51,6.012,6.012,0,0,1-2.486.714,2.031,2.031,0,0,1-1.113-.309,2.433,2.433,0,0,1-.756-2.088c0-1.133.288-2.356.288-2.892v-.089a.14.14,0,0,0-.131-.069c-1.023,0-6.779,6.937-7.225,8.668-.069.288-.247.426-.4.426a.486.486,0,0,1-.467-.488v-.11a29.312,29.312,0,0,1,1.511-6.669,1.033,1.033,0,0,0,.041-.247c0-.22-.069-.467-.069-.735a1.567,1.567,0,0,1,.069-.467c.13-.4.735-.955.845-1.223,1.958-5.2,4.581-11.958,6.47-14.671.289-.446,1.092-1.381,1.779-1.381a.71.71,0,0,1,.508.22,1.363,1.363,0,0,1,.309,1Zm-1.044.041a.652.652,0,0,0-.11-.419,1.976,1.976,0,0,0-.845.756c-1.49,2.067-4.821,11.023-5.646,13.228,2.246-3.468,6.6-11.47,6.6-13.558Z" transform="translate(-253.492 -40.759)"/>
          <path id="Path_19396" data-name="Path 19396" d="M320.128,71.506c.865-1.848,2.136-3.022,3.2-3.022a1.536,1.536,0,0,1,1.243.687c.824,1.82,4.114,2.157,6.58,2.157,1.092,0,2.026-.069,2.486-.089a1.331,1.331,0,0,0,.508-.22,1.423,1.423,0,0,1,.22-.041c.13,0,.179.069.179.13a.493.493,0,0,1-.336.419,14.176,14.176,0,0,1-3.777.378c-2.425,0-5.289-.4-6.4-1.957a.567.567,0,0,0-.446-.268c-1.58,0-4.492,6.958-4.512,6.978V76.7c0,.268-.309.378-.646.378-.4,0-.845-.158-.845-.378a.589.589,0,0,1,.021-.089l1.889-7.912a.87.87,0,0,1,.865-.577c.419,0,.845.247.845.646v.041L320.108,71.5Z" transform="translate(-260.141 -47.426)"/>
          <path id="Path_19397" data-name="Path 19397" d="M344.476,72.4c-1.758,1.669-3.757,3.537-4.711,3.537a1.081,1.081,0,0,0-.11-.021.968.968,0,0,1-.577-.357,1.22,1.22,0,0,1-.247-.8,1.882,1.882,0,0,1,.021-.337,3.923,3.923,0,0,1,.4-1.243,6.684,6.684,0,0,1,3.736-3.6,4.248,4.248,0,0,1,1.2-.179,2.082,2.082,0,0,1,1.532.556,4.384,4.384,0,0,1,1.868-1.113.456.456,0,0,1,.179.041c.288.041.446.337.446.824a6.591,6.591,0,0,1-.556,2.246,4.928,4.928,0,0,0-.357,1.669c0,1.154.735,1.58,1.82,1.58,2.823,0,8.07-2.981,8.846-3.956.131-.268.288-.357.419-.357.2,0,.337.179.337.419a.581.581,0,0,1-.158.4c-.268.378-6.223,3.867-9.691,3.867-1.422,0-2.425-.6-2.425-2.267a6.748,6.748,0,0,1,.22-1.58c.131-.845.419-1.621.419-1.8V69.9s-.337.309-.845.8a2.1,2.1,0,0,1,.089.666v.089a.89.89,0,0,1-.714.426.555.555,0,0,1-.268-.069l-.069-.2c-.309.309-.446.426-.824.776Zm-.378-1.47c-1.065,0-2.933,2.424-2.933,2.933,0,.069.041.11.13.11.419,0,1.758-1.065,3.159-2.933A.516.516,0,0,0,344.1,70.928Z" transform="translate(-266.796 -47.652)"/>
          <path id="Path_19398" data-name="Path 19398" d="M386.721,82.41l4.87-.021c.536-.021,1.47-.309,2.315-.4a.531.531,0,0,1,.508.556.874.874,0,0,1-.955.8h-.041l-7.761-.069a6.512,6.512,0,0,1-2.843.577,8.808,8.808,0,0,1-2.534-.337.62.62,0,0,1-.4-.577c0-.288.179-.536.625-.577l4.911.021c2.026-1.023,12.356-32.384,13.915-36.786a35.249,35.249,0,0,0-6.223.824c-.309-.021-.488-.378-.488-.714a.517.517,0,0,1,.309-.536c.021-.021,3.331-.158,6.738-.268l.041-.089.22.069c1.909-.041,3.826-.089,5.2-.089a14.314,14.314,0,0,1,1.848.069.66.66,0,0,1,.22.11.447.447,0,0,1,.179.268v.11a.437.437,0,0,1-.089.288.57.57,0,0,1-.179.158,5.012,5.012,0,0,1-2.026.337,9.03,9.03,0,0,1-1.154-.069l.041-.13h-.11c-1.023,0-2.157-.268-3.379-.268h-.247c-1.69,4.8-11.889,35.055-13.517,36.745Z" transform="translate(-279.652 -40.123)"/>
          <path id="Path_19399" data-name="Path 19399" d="M406.738,76.64a3.889,3.889,0,0,0,.247,1.559,1.039,1.039,0,0,0,.955.687c3.269,0,11.649-13.448,11.669-13.489a.858.858,0,0,1,.666-.467c.247,0,.419.179.419.488v.021c-.021.041-8.805,13.757-12.823,13.757a1.563,1.563,0,0,1-1.442-1.023,5.283,5.283,0,0,1-.309-2.088c0-5.824,4.313-19.252,7.267-23.318a21.111,21.111,0,0,1,2.026-2.953c.687-.776,1.312-1.223,1.82-1.223h.021a.975.975,0,0,1,.845.735,2.549,2.549,0,0,1,.13.865c0,4-6.333,13.379-9.025,15.179-1.648,5.268-2.466,9.114-2.466,11.271Zm10.646-26.765a.718.718,0,0,0-.048-.268c-.069-.131-.11-.2-.158-.2h-.021c-.22,0-.625.357-1.133.934a20.233,20.233,0,0,0-1.937,2.823,76.421,76.421,0,0,0-4.2,10.2c1.381-1.264,7.493-11.133,7.493-13.5Z" transform="translate(-287.87 -41.31)"/>
          <path id="Path_19400" data-name="Path 19400" d="M426.276,61.345l.247-.158c.756-.577,1.559-1.133,2.287-1.621,1.868-1.243,2.8-1.779,3.956-1.8a.509.509,0,0,1,.536.556,1.567,1.567,0,0,1-.268.8,2.582,2.582,0,0,0-.4-.021,6.426,6.426,0,0,0-3.331,1.223c-1.243.8-3.221,2.287-4.4,3.221-.378,1-.646,1.71-1,2.713,1.552.131,2.981.22,4.313.22a29.707,29.707,0,0,0,10.405-1.889.517.517,0,0,1,.288-.089c.2,0,.309.2.309.446a.749.749,0,0,1-.357.666,32.575,32.575,0,0,1-10.2,1.264c-1.71,0-3.4-.069-4.89-.131-1.065,2.864-2.555,9.561-3.647,12.445a1.067,1.067,0,0,1-.865.357c-.309,0-.577-.11-.577-.446a.819.819,0,0,1,.089-.357l.357-1.023a70.651,70.651,0,0,1,3.6-11.113,1.446,1.446,0,0,1-.687-.337.53.53,0,0,1-.158-.378c0-.6.714-1.47,1.8-2.424a6.217,6.217,0,0,1,.536-.467,124.055,124.055,0,0,1,8.956-17.315c.488-.8.934-1.223,1.222-1.223a.263.263,0,0,1,.2.089.459.459,0,0,1,.11.337c-.378,1.779-.625.865-1.222,1.381A124.853,124.853,0,0,0,425.548,61.9l.556-.426a1.333,1.333,0,0,0,.179-.13Zm-2.891,3.6a3.922,3.922,0,0,0-.666.687l.021.021c.048.041.089.22.2.378.13-.357.288-.735.446-1.092Z" transform="translate(-291.803 -40.019)"/>
          <path id="Path_19401" data-name="Path 19401" d="M451.823,69.954c0,1.868-3,3.07-3.626,3.31,0,.13-.021.288-.021.446a2.99,2.99,0,0,0,.357,1.559,1.551,1.551,0,0,0,1.4.646c3.07,0,9.2-4.622,9.224-4.643a.419.419,0,0,1,.268-.089.56.56,0,0,1,.536.536.42.42,0,0,1-.179.309c-.041.021-6.023,4.334-9.67,4.334a2.481,2.481,0,0,1-2.246-1.044,3.362,3.362,0,0,1-.577-1.937,5.315,5.315,0,0,1,1.353-3.29,4.648,4.648,0,0,1,1.243-1.044,1.756,1.756,0,0,1,.886-.268.981.981,0,0,1,.447.089.969.969,0,0,1,.577.845c0,.089.021.158.021.247Zm-1.353,0a.062.062,0,0,0-.069-.069c-.447.069-.865.886-1.889,2.225C449.934,70.889,450.47,70.154,450.47,69.954Z" transform="translate(-300.763 -47.633)"/>
          <path id="Path_19402" data-name="Path 19402" d="M506.382,76.092c2.047-6.072,3.537-11.491,4.67-15.714-5.845.508-12.095,1.8-17.94,2.356-2.026,3.269-3.977,6.6-5.845,9.938-.22,1.092-.515,2.157-.824,3.2-1.332,4.471-2.019,7.514-3.448,8.558a1.3,1.3,0,0,1-.735.309c-.337,0-.556-.309-.556-1,0-1.559,1.2-5.089,4.8-11.223a23.459,23.459,0,0,0,1.113-5.955,6.637,6.637,0,0,0-.714-3.18c-2.933.247-5.735.357-8.022.357-3.31,0-5.6-.268-5.783-.824a.573.573,0,0,1-.069-.268c0-1.2,4.245-3.29,8.159-3.29,2.225,0,4.334.666,5.488,2.534,2.047-.179,4.2-.378,6.381-.577,4.87-7.823,10.137-15.337,13.359-18.07a2.117,2.117,0,0,1,.357-.288,11.257,11.257,0,0,1,4.581-2.424A3.624,3.624,0,0,1,512,40.46c2.356,0,3.111,2.466,3.111,5.625,0,4.979-1.868,11.69-2.335,13.517h.735c1.154,0,1.847.089,1.909.309v.041c0,.4-.934.845-3.111,1.381-1.264,4.554-3,10.028-5.289,16.518-.021.446-.467.666-.934.666-.577,0-1.2-.309-1.2-.845V77.6c.247-.687,1.264-.845,1.49-1.511ZM481.622,60.11a17.274,17.274,0,0,0-7.4,2.047c.069.22.955.337,2.445.337,2.115,0,5.446-.2,9.382-.536A5.315,5.315,0,0,0,481.622,60.11Zm.625,23.228c0,.089.021.11.041.11.337,0,1.909-2.843,3.4-7.8l.041-.158c-2.576,4.8-3.489,7.294-3.489,7.844Zm5.247-20.007a7.422,7.422,0,0,1,.666,3.132,31.1,31.1,0,0,1-.467,3.915c1.422-2.555,2.912-5.069,4.444-7.555a34.717,34.717,0,0,0-4.643.508Zm26.559-18c0-2.376-.556-4.066-2.136-4.066a3.4,3.4,0,0,0-.426.041,10.617,10.617,0,0,0-4.245,2.266c-.089.089-.179.158-.309.268-3.091,2.624-8.132,9.78-12.892,17.383,5.694-.556,11.511-1.264,17.2-1.532.426-1.648,2.8-9.444,2.8-14.361Zm.6,14.76h-.069c-.2,0-.913.041-1.978.13l-.069.247a19.9,19.9,0,0,0,2.116-.378Z" transform="translate(-308.825 -38.764)"/>
          <path id="Path_19403" data-name="Path 19403" d="M536.966,61.345l.247-.158c.755-.577,1.559-1.133,2.287-1.621,1.868-1.243,2.8-1.779,3.956-1.8a.509.509,0,0,1,.536.556,1.567,1.567,0,0,1-.268.8,2.579,2.579,0,0,0-.4-.021A6.426,6.426,0,0,0,540,60.329c-1.243.8-3.221,2.287-4.4,3.221-.378,1-.646,1.71-1,2.713,1.552.131,2.981.22,4.313.22a29.707,29.707,0,0,0,10.405-1.889.517.517,0,0,1,.288-.089c.2,0,.309.2.309.446a.749.749,0,0,1-.357.666,32.576,32.576,0,0,1-10.2,1.264c-1.71,0-3.4-.069-4.89-.131-1.064,2.864-2.555,9.561-3.647,12.445a1.067,1.067,0,0,1-.865.357c-.309,0-.577-.11-.577-.446a.818.818,0,0,1,.089-.357l.357-1.023a70.652,70.652,0,0,1,3.6-11.113,1.446,1.446,0,0,1-.687-.337.531.531,0,0,1-.158-.378c0-.6.714-1.47,1.8-2.424a6.2,6.2,0,0,1,.536-.467,124.065,124.065,0,0,1,8.956-17.315c.488-.8.934-1.223,1.223-1.223a.263.263,0,0,1,.2.089.459.459,0,0,1,.11.337c-.378,1.779-.625.865-1.222,1.381A124.848,124.848,0,0,0,536.238,61.9l.556-.426a1.36,1.36,0,0,0,.179-.13Zm-2.892,3.6a3.912,3.912,0,0,0-.666.687l.021.021c.048.041.089.22.2.378.13-.357.288-.735.446-1.092Z" transform="translate(-326.469 -40.019)"/>
          <path id="Path_19404" data-name="Path 19404" d="M569.617,69.6c0,1.889-1.113,4.8-1.332,5.694,1.937-2.6,7.335-4.732,9.2-4.732a1.46,1.46,0,0,1,.309.021c.247.069.357.179.357.309a.981.981,0,0,1-.357.577,13.218,13.218,0,0,0-10.138,5.316c-.913,3.159-3.022,8.647-4.093,11.449-.288.756-2.356,6.36-3.668,6.36a.368.368,0,0,1-.158-.021c-.625-.2-.8-.845-.8-1.532a7.432,7.432,0,0,1,.288-1.868,39.14,39.14,0,0,1,1.848-5.048,51.988,51.988,0,0,1,5.048-8.537c.268-.955.714-2.424.934-3.29a46.271,46.271,0,0,0,1.065-5.337.371.371,0,0,0-.041-.22h-.041c-.776,0-6.243,7.116-8.221,7.624a2.982,2.982,0,0,1-.845.131,1.16,1.16,0,0,1-1.312-1.023,3.309,3.309,0,0,1-.11-.955c0-2,1.065-4.732,1.511-6.49a.564.564,0,0,1,.625-.467c.556,0,1.312.467,1.312.975,0,.041-.021.11-.021.158-.426,1.648-1.312,3.778-1.312,5.536a5.439,5.439,0,0,0,.041.577c.041.357.13.556.357.556h.041c2-.357,6.333-7.466,8.379-7.466.845.021,1.133.735,1.133,1.71ZM565.3,80.383a67.341,67.341,0,0,0-3.022,6.291,39.526,39.526,0,0,0-1.82,4.979,9.192,9.192,0,0,0-.378,1.957v.069a24.118,24.118,0,0,0,3-5.982c.687-1.848,1.559-5.2,2.225-7.315Z" transform="translate(-335.294 -47.251)"/>
          <path id="Path_19405" data-name="Path 19405" d="M586.95,74.494a1.154,1.154,0,0,0,.446,1.044.823.823,0,0,0,.508.11c2.6,0,12.445-4.245,12.445-4.245a.808.808,0,0,1,.488-.179.666.666,0,0,1,.687.536.166.166,0,0,1-.041.13c-.021,0-10.268,4.464-13.984,4.464a1.5,1.5,0,0,1-1.174-.337,2.228,2.228,0,0,1-.845-2,9.9,9.9,0,0,1,1.154-4.135.873.873,0,0,1,.824-.536.891.891,0,0,1,.934.8.657.657,0,0,1-.021.2,11.873,11.873,0,0,0-1.422,4.135Z" transform="translate(-344.042 -47.811)"/>
          <path id="Path_19406" data-name="Path 19406" d="M605.068,76.64a3.889,3.889,0,0,0,.247,1.559,1.039,1.039,0,0,0,.955.687c3.269,0,11.649-13.448,11.669-13.489a.858.858,0,0,1,.666-.467c.247,0,.419.179.419.488v.021c-.021.041-8.805,13.757-12.823,13.757a1.563,1.563,0,0,1-1.442-1.023,5.282,5.282,0,0,1-.309-2.088c0-5.824,4.313-19.252,7.267-23.318a21.1,21.1,0,0,1,2.026-2.953c.687-.776,1.312-1.223,1.82-1.223h.021a.975.975,0,0,1,.845.735,2.544,2.544,0,0,1,.131.865c0,4-6.333,13.379-9.025,15.179C605.885,70.637,605.068,74.483,605.068,76.64Zm10.646-26.765a.719.719,0,0,0-.048-.268c-.069-.131-.11-.2-.158-.2h-.021c-.22,0-.625.357-1.133.934a20.225,20.225,0,0,0-1.937,2.823,76.437,76.437,0,0,0-4.2,10.2c1.38-1.264,7.493-11.133,7.493-13.5Z" transform="translate(-349.982 -41.31)"/>
          <path id="Path_19407" data-name="Path 19407" d="M635.613,49.807c1.065-1.779,1.847-2.287,2.356-2.287a.693.693,0,0,1,.666.687.289.289,0,0,1-.021.131V48.5c0,4.554-7.96,15.405-7.96,15.405l-1.621,4.4a38.283,38.283,0,0,0-2.157,10.934,5.851,5.851,0,0,0,.021.646c.179,1.71,1.223,2.246,1.621,2.246a.555.555,0,0,1,.536.488.387.387,0,0,1-.22.337.494.494,0,0,1-.247.069c-.4,0-.845-.488-.845-.488a6.118,6.118,0,0,1-1.223-3.07c-.021-.268-.021-.536-.021-.8,0-4.492,2.109-11.4,2.981-13.269,0,0-3.132,3.8-4.622,4.512a1.8,1.8,0,0,1-.756.2c-.735,0-1.2-.666-1.2-1.71a5.626,5.626,0,0,1,.22-1.353c.625-2.246,1.978-4.712,4.114-5.289a2.7,2.7,0,0,1,.824-.11,2.39,2.39,0,0,1,2.108,1.332c1.758-4.979,3.249-9.471,5.447-13.16Zm-7.047,13c-.069,0-.13.021-.2.021-.975.158-2.356,1.49-3.311,3.159a6.814,6.814,0,0,0-.934,2.734c0,.288.089.467.288.467.268,0,.756-.357,1.559-1.291,2.713-3.132,3.51-4.135,3.51-4.135S629.39,62.809,628.566,62.809Zm8.448-11.889a10.261,10.261,0,0,0,.824-2.246c0-.13-.048-.2-.158-.2h-.021c-.536.041-1.758,2.047-1.758,2.047-1.848,2.912-4.087,10.268-4.087,10.268C633.724,57.479,636.6,51.923,637.014,50.92Z" transform="translate(-355.761 -40.975)"/>
          <path id="Path_19408" data-name="Path 19408" d="M641.35,74.494a1.154,1.154,0,0,0,.446,1.044.824.824,0,0,0,.508.11c2.6,0,12.445-4.245,12.445-4.245a.809.809,0,0,1,.488-.179.666.666,0,0,1,.687.536.165.165,0,0,1-.041.13c-.021,0-10.268,4.464-13.984,4.464a1.5,1.5,0,0,1-1.174-.337,2.228,2.228,0,0,1-.845-2,9.892,9.892,0,0,1,1.154-4.135.873.873,0,0,1,.824-.536.891.891,0,0,1,.934.8.657.657,0,0,1-.021.2,11.874,11.874,0,0,0-1.422,4.135Z" transform="translate(-361.078 -47.811)"/>
          <path id="Path_19409" data-name="Path 19409" d="M665.233,66.417a1.961,1.961,0,0,1,.357.021c.865.158,1.2.556,1.2,1.113,0,1.731-3.578,4.87-4.354,5.488a2.7,2.7,0,0,1,.824.11,3.178,3.178,0,0,1,2.844,2.486c2.356-1.731,5.11-3.626,8.269-5.646a.386.386,0,0,1,.2-.069c.22,0,.378.247.378.467a.358.358,0,0,1-.13.288c-3.379,2.136-6.2,4.2-8.647,6.023-.247,4.471-9.313,13.647-12.8,13.874-.069,0-.158.021-.268.021a1.3,1.3,0,0,1-.577-.11.993.993,0,0,1-.337-.776,2.114,2.114,0,0,1,.131-.666c1.511-4.4,9.67-10.316,13.249-13-.11-1.442-1.422-1.82-2.466-2.026a7.056,7.056,0,0,0-1.174-.11c-.268,0-.556.021-.776.041a.419.419,0,0,1-.268-.089,3.587,3.587,0,0,1-.419.179.593.593,0,0,1-.179.021.57.57,0,0,1-.577-.309,1.537,1.537,0,0,1,.556-.467.309.309,0,0,1-.041-.089c0-.021,0-.041.021-.041.865-.2,3.132-2.177,4.464-3.887a3.291,3.291,0,0,0,.845-1.47c0-.158-.11-.22-.268-.22a5,5,0,0,0-1.71.646,10.381,10.381,0,0,0-3.537,2.665c-.426.536-.357,1.223-.666,1.4a1.235,1.235,0,0,1-.865.268c-.556,0-1.113-.22-1.113-.556a.493.493,0,0,1,.041-.158c.021-.021,5-5.426,7.8-5.426ZM653.495,89.288a3.557,3.557,0,0,0-.13.666c3.51-.556,11.312-8.736,12.116-12.713C662.637,79.4,654.724,85.73,653.5,89.288Z" transform="translate(-364.933 -46.891)"/>
          <path id="Path_19410" data-name="Path 19410" d="M411.221,38.814a1.127,1.127,0,0,1-.089.467,1.048,1.048,0,0,1-.886.776.656.656,0,0,1-.2-.021.812.812,0,0,1-.467-.8,1.13,1.13,0,0,1,.089-.467,1.1,1.1,0,0,1,.913-.776.53.53,0,0,1,.179.021.819.819,0,0,1,.467.8Z" transform="translate(-288.953 -37.99)"/>
        </g>
        <g id="Group_9279" data-name="Group 9279" transform="translate(170.146 89.307)">
          <path id="Path_19411" data-name="Path 19411" d="M247.737,131.879a.442.442,0,0,1,.206-.412.829.829,0,0,1,.893,0,.463.463,0,0,1,.192.412v9.684l7.953-10.021a.38.38,0,0,1,.192-.172.719.719,0,0,1,.247-.041.7.7,0,0,1,.481.206.638.638,0,0,1,.22.467.364.364,0,0,1-.13.309l-5.776,7.2,6.525,9.842a.39.39,0,0,1,.1.288.6.6,0,0,1-.22.453.734.734,0,0,1-.508.192.559.559,0,0,1-.494-.309L251.35,140.6l-2.328,2.9v6.188a.488.488,0,0,1-.192.426.763.763,0,0,1-.893,0,.489.489,0,0,1-.206-.426V131.873Z" transform="translate(-247.73 -130.43)"/>
          <path id="Path_19412" data-name="Path 19412" d="M269.6,140.877a4.786,4.786,0,0,1,2.095.412,3.774,3.774,0,0,1,1.387,1.113,4.451,4.451,0,0,1,.762,1.593,7.539,7.539,0,0,1,.234,1.854v6.834a.521.521,0,0,1-.172.4.628.628,0,0,1-.453.172.6.6,0,0,1-.44-.172.514.514,0,0,1-.179-.4V151.44a7.682,7.682,0,0,1-1.635,1.36,4.111,4.111,0,0,1-2.253.611,4.608,4.608,0,0,1-1.4-.206,3.25,3.25,0,0,1-1.14-.632,2.856,2.856,0,0,1-.762-1.065,3.892,3.892,0,0,1-.275-1.518,2.844,2.844,0,0,1,1.669-2.775,6.218,6.218,0,0,1,1.9-.543,17.9,17.9,0,0,1,2.459-.158h1.4v-.673a5.522,5.522,0,0,0-.179-1.36,3.738,3.738,0,0,0-.57-1.229,2.91,2.91,0,0,0-1.01-.879,3.081,3.081,0,0,0-1.5-.337,4.405,4.405,0,0,0-1.071.117,5.481,5.481,0,0,0-.776.247,5.754,5.754,0,0,0-.529.247.755.755,0,0,1-.337.117.459.459,0,0,1-.426-.247.915.915,0,0,1-.144-.453.576.576,0,0,1,.3-.426,3.261,3.261,0,0,1,.776-.391,7.823,7.823,0,0,1,1.071-.275,7,7,0,0,1,1.188-.1Zm3.214,6.683h-1.271c-.639,0-1.25.021-1.841.062a5.808,5.808,0,0,0-1.566.309,2.428,2.428,0,0,0-1.085.728,1.941,1.941,0,0,0-.4,1.284,2.113,2.113,0,0,0,.714,1.772,2.788,2.788,0,0,0,1.772.556,3.4,3.4,0,0,0,1.332-.275,4.593,4.593,0,0,0,2.026-1.607,1.663,1.663,0,0,0,.323-.92v-1.916Z" transform="translate(-253.254 -133.418)"/>
          <path id="Path_19413" data-name="Path 19413" d="M290.96,130.02a.638.638,0,0,1,.453.158.519.519,0,0,1,.172.392v18.723a.561.561,0,0,1-.172.392.571.571,0,0,1-.453.179.606.606,0,0,1-.44-.179.531.531,0,0,1-.179-.392v-1.243a3.828,3.828,0,0,1-1.387,1.387,4.145,4.145,0,0,1-3.894.185,4.888,4.888,0,0,1-1.463-1.065,5,5,0,0,1-1.01-1.525,4.547,4.547,0,0,1-.378-1.8v-3a4.57,4.57,0,0,1,.378-1.854,4.766,4.766,0,0,1,2.486-2.514,4.424,4.424,0,0,1,1.8-.378,3.615,3.615,0,0,1,2.15.611,4.484,4.484,0,0,1,1.3,1.36v-8.881a.5.5,0,0,1,.179-.391.7.7,0,0,1,.467-.158Zm-7.486,15.2a3.373,3.373,0,0,0,.275,1.346,3.8,3.8,0,0,0,.749,1.154,3.714,3.714,0,0,0,1.1.8,2.988,2.988,0,0,0,1.319.3,3.024,3.024,0,0,0,1.346-.309,4.54,4.54,0,0,0,1.072-.735,3.676,3.676,0,0,0,.714-.893,1.712,1.712,0,0,0,.261-.776v-3.887a3.7,3.7,0,0,0-.3-1.49,3.631,3.631,0,0,0-.762-1.113,3.289,3.289,0,0,0-1.071-.7,3.231,3.231,0,0,0-2.589.048,3.469,3.469,0,0,0-1.1.8,3.91,3.91,0,0,0-.735,1.14,3.345,3.345,0,0,0-.275,1.3v3Z" transform="translate(-258.528 -130.02)"/>
          <path id="Path_19414" data-name="Path 19414" d="M305.6,142.075a3.4,3.4,0,0,0-1.3.261,3.531,3.531,0,0,0-1.113.749,3.707,3.707,0,0,0-.79,1.188,4,4,0,0,0-.3,1.58v6.834a.57.57,0,0,1-.179.392.621.621,0,0,1-.467.179.6.6,0,0,1-.453-.179.579.579,0,0,1-.172-.392V141.553a.46.46,0,0,1,.172-.378.665.665,0,0,1,.453-.144.69.69,0,0,1,.44.144.447.447,0,0,1,.179.378v1.319a4.516,4.516,0,0,1,1.319-1.374,3.731,3.731,0,0,1,2.2-.618h.934a.52.52,0,0,1,.4.172.585.585,0,0,1,.172.426.559.559,0,0,1-.172.426.569.569,0,0,1-.4.172H305.6Z" transform="translate(-264.36 -133.421)"/>
          <path id="Path_19415" data-name="Path 19415" d="M313.319,132.77a.928.928,0,0,1,.673.275.839.839,0,0,1,.288.632.973.973,0,0,1-.962.955.951.951,0,0,1-.989-.955.849.849,0,0,1,.275-.632A.984.984,0,0,1,313.319,132.77Zm0,5.721a.729.729,0,0,1,.467.144.447.447,0,0,1,.179.378v11.133a.57.57,0,0,1-.179.391.621.621,0,0,1-.467.179.6.6,0,0,1-.453-.179.578.578,0,0,1-.172-.391V139.013a.46.46,0,0,1,.172-.378A.665.665,0,0,1,313.319,138.491Z" transform="translate(-267.961 -130.881)"/>
          <path id="Path_19416" data-name="Path 19416" d="M317.885,141.674a.91.91,0,0,1-.055-.206.539.539,0,0,1,.234-.44.811.811,0,0,1,.515-.179.514.514,0,0,1,.3.089.455.455,0,0,1,.192.247l3.654,9.973,3.551-9.973a.512.512,0,0,1,.495-.337.824.824,0,0,1,.481.172.517.517,0,0,1,.247.453.551.551,0,0,1-.027.206l-4.093,11.161c-.24.673-.515,1.387-.817,2.15a13.987,13.987,0,0,1-1.037,2.109,6.389,6.389,0,0,1-1.346,1.607,2.61,2.61,0,0,1-1.724.632.628.628,0,0,1-.412-.144.535.535,0,0,1-.179-.453.8.8,0,0,1,.1-.412.378.378,0,0,1,.364-.179,1.842,1.842,0,0,0,1.2-.467,4.894,4.894,0,0,0,1.023-1.229,11.676,11.676,0,0,0,.852-1.71c.261-.632.481-1.264.673-1.9l-4.2-11.161Z" transform="translate(-269.684 -133.412)"/>
          <path id="Path_19417" data-name="Path 19417" d="M339.086,140.877a4.4,4.4,0,0,1,1.813.378,5.142,5.142,0,0,1,1.518,1.01,4.861,4.861,0,0,1,1.051,1.5,4.447,4.447,0,0,1,.392,1.854v3a4.335,4.335,0,0,1-.392,1.8,5.122,5.122,0,0,1-1.051,1.525,5.356,5.356,0,0,1-1.518,1.065,4.209,4.209,0,0,1-1.813.4,4.3,4.3,0,0,1-1.813-.391,5.028,5.028,0,0,1-1.5-1.051,5.209,5.209,0,0,1-1.037-1.525,4.389,4.389,0,0,1-.392-1.827v-3a4.4,4.4,0,0,1,.378-1.813,4.828,4.828,0,0,1,1.023-1.5,5.114,5.114,0,0,1,1.5-1.037,4.362,4.362,0,0,1,1.841-.391Zm3.5,4.739a3.2,3.2,0,0,0-.275-1.3,3.818,3.818,0,0,0-.749-1.14,3.775,3.775,0,0,0-1.113-.8,3.167,3.167,0,0,0-1.36-.3,3.271,3.271,0,0,0-1.36.3,3.469,3.469,0,0,0-1.1.8,3.91,3.91,0,0,0-.735,1.14,3.345,3.345,0,0,0-.275,1.3v3a3.372,3.372,0,0,0,.275,1.346,3.887,3.887,0,0,0,.735,1.154,3.548,3.548,0,0,0,1.1.8,3.278,3.278,0,0,0,2.72,0,3.607,3.607,0,0,0,1.113-.8,3.8,3.8,0,0,0,.749-1.154,3.5,3.5,0,0,0,.275-1.346Z" transform="translate(-274.854 -133.418)"/>
          <path id="Path_19418" data-name="Path 19418" d="M353.375,130.02a.7.7,0,0,1,.467.158.481.481,0,0,1,.179.392v18.723a.57.57,0,0,1-.179.392.621.621,0,0,1-.467.179.594.594,0,0,1-.453-.179.579.579,0,0,1-.172-.392V130.569a.5.5,0,0,1,.172-.392A.65.65,0,0,1,353.375,130.02Z" transform="translate(-280.62 -130.02)"/>
          <path id="Path_19419" data-name="Path 19419" d="M363.906,140.877a4.4,4.4,0,0,1,1.813.378,5.142,5.142,0,0,1,1.518,1.01,4.862,4.862,0,0,1,1.051,1.5,4.447,4.447,0,0,1,.392,1.854v3a4.335,4.335,0,0,1-.392,1.8,5.123,5.123,0,0,1-1.051,1.525,5.357,5.357,0,0,1-1.518,1.065,4.209,4.209,0,0,1-1.813.4,4.305,4.305,0,0,1-1.813-.391,5.029,5.029,0,0,1-1.5-1.051,5.211,5.211,0,0,1-1.037-1.525,4.39,4.39,0,0,1-.391-1.827v-3a4.4,4.4,0,0,1,.378-1.813,4.828,4.828,0,0,1,1.023-1.5,5.113,5.113,0,0,1,1.5-1.037,4.362,4.362,0,0,1,1.841-.391Zm3.5,4.739a3.2,3.2,0,0,0-.275-1.3,3.818,3.818,0,0,0-.749-1.14,3.69,3.69,0,0,0-1.113-.8,3.167,3.167,0,0,0-1.36-.3,3.271,3.271,0,0,0-1.36.3,3.47,3.47,0,0,0-1.1.8,4.077,4.077,0,0,0-.742,1.14,3.345,3.345,0,0,0-.275,1.3v3a3.371,3.371,0,0,0,.275,1.346,3.774,3.774,0,0,0,.742,1.154,3.548,3.548,0,0,0,1.1.8,3.278,3.278,0,0,0,2.72,0,3.607,3.607,0,0,0,1.113-.8,3.8,3.8,0,0,0,.749-1.154,3.5,3.5,0,0,0,.275-1.346Z" transform="translate(-282.627 -133.418)"/>
          <path id="Path_19420" data-name="Path 19420" d="M376.667,138.5a.729.729,0,0,1,.467.144.447.447,0,0,1,.179.378v12.9a10.248,10.248,0,0,1-.172,1.978,4.478,4.478,0,0,1-.556,1.538,2.773,2.773,0,0,1-1.023,1.01,3.071,3.071,0,0,1-1.538.364.607.607,0,0,1-.481-.192.661.661,0,0,1-.172-.426.52.52,0,0,1,.172-.412.6.6,0,0,1,.426-.158,1.86,1.86,0,0,0,1.085-.288,1.811,1.811,0,0,0,.632-.776,3.931,3.931,0,0,0,.288-1.168c.041-.446.062-.941.062-1.477v-12.9a.46.46,0,0,1,.172-.378.665.665,0,0,1,.453-.144Zm0-5.721a.929.929,0,0,1,.673.275.839.839,0,0,1,.288.632.974.974,0,0,1-.962.955.951.951,0,0,1-.989-.955.849.849,0,0,1,.275-.632A.974.974,0,0,1,376.667,132.78Z" transform="translate(-287.078 -130.884)"/>
          <path id="Path_19421" data-name="Path 19421" d="M384.539,132.77a.928.928,0,0,1,.673.275.839.839,0,0,1,.288.632.974.974,0,0,1-.962.955.951.951,0,0,1-.989-.955.849.849,0,0,1,.275-.632A.974.974,0,0,1,384.539,132.77Zm0,5.721a.729.729,0,0,1,.467.144.447.447,0,0,1,.179.378v11.133a.57.57,0,0,1-.179.391.621.621,0,0,1-.467.179.6.6,0,0,1-.453-.179.579.579,0,0,1-.172-.391V139.013a.46.46,0,0,1,.172-.378A.665.665,0,0,1,384.539,138.491Z" transform="translate(-290.266 -130.881)"/>
          <path id="Path_19422" data-name="Path 19422" d="M408.03,131.883a.447.447,0,0,1,.192-.412.829.829,0,0,1,.893,0,.457.457,0,0,1,.206.412v13.1a7.149,7.149,0,0,1-.4,2.514,4.226,4.226,0,0,1-2.782,2.631,7.431,7.431,0,0,1-4.148,0,4.264,4.264,0,0,1-1.655-.948,4.454,4.454,0,0,1-1.1-1.683,6.969,6.969,0,0,1-.4-2.514v-13.1a.442.442,0,0,1,.206-.412.8.8,0,0,1,.44-.131.781.781,0,0,1,.453.131.462.462,0,0,1,.192.412v13.1a4.277,4.277,0,0,0,1.037,3.187,3.969,3.969,0,0,0,2.9,1.01,4.026,4.026,0,0,0,2.912-1.01,4.251,4.251,0,0,0,1.051-3.187v-13.1Z" transform="translate(-295.054 -130.433)"/>
          <path id="Path_19423" data-name="Path 19423" d="M425.988,152.134a.5.5,0,0,1,.391.179.664.664,0,0,1,.158.44.561.561,0,0,1-.158.4.519.519,0,0,1-.391.172H418.22a.559.559,0,0,1-.412-.158.505.505,0,0,1-.158-.364.825.825,0,0,1,.179-.495l6.628-10.048h-6.01a.506.506,0,0,1-.391-.172.573.573,0,0,1-.158-.4.6.6,0,0,1,.158-.426.52.52,0,0,1,.391-.172H425.7a.579.579,0,0,1,.378.144.5.5,0,0,1,.172.4.651.651,0,0,1-.158.44l-6.655,10.048h6.552Z" transform="translate(-300.945 -133.487)"/>
          <path id="Path_19424" data-name="Path 19424" d="M441.73,145.516a3.734,3.734,0,0,0-.247-1.36,3.475,3.475,0,0,0-.673-1.1,3.217,3.217,0,0,0-1.01-.728,3.015,3.015,0,0,0-1.229-.261,2.965,2.965,0,0,0-1.2.247,3.432,3.432,0,0,0-1.051.7,3.375,3.375,0,0,0-.749,1.113,3.794,3.794,0,0,0-.289,1.49v7.067a.571.571,0,0,1-.179.391.621.621,0,0,1-.467.179.6.6,0,0,1-.453-.179.579.579,0,0,1-.172-.391V141.553a.46.46,0,0,1,.172-.378.665.665,0,0,1,.453-.144.69.69,0,0,1,.44.144.466.466,0,0,1,.179.378v1.3a4.541,4.541,0,0,1,1.291-1.36,3.674,3.674,0,0,1,2.177-.611,3.8,3.8,0,0,1,2.294.714,4.583,4.583,0,0,1,1.49,1.875,4.686,4.686,0,0,1,1.738-1.957,4.208,4.208,0,0,1,2.2-.632,4.341,4.341,0,0,1,1.607.309,4,4,0,0,1,1.374.92,4.522,4.522,0,0,1,.955,1.49,5.294,5.294,0,0,1,.364,2.019v7.067a.57.57,0,0,1-.179.392.621.621,0,0,1-.467.179.607.607,0,0,1-.44-.179.531.531,0,0,1-.179-.392v-7.067a3.819,3.819,0,0,0-.288-1.538,3.57,3.57,0,0,0-.735-1.113,2.914,2.914,0,0,0-1.023-.673,3.2,3.2,0,0,0-1.14-.22,3.037,3.037,0,0,0-1.2.247,3.606,3.606,0,0,0-1.051.687,3.34,3.34,0,0,0-.749,1.071,3.383,3.383,0,0,0-.288,1.415v7.225a.447.447,0,0,1-.192.412.781.781,0,0,1-.453.13.746.746,0,0,1-.412-.13.457.457,0,0,1-.206-.412v-7.2Z" transform="translate(-306.069 -133.421)"/>
          <path id="Path_19425" data-name="Path 19425" d="M466.171,140.877a4.785,4.785,0,0,1,2.095.412,3.775,3.775,0,0,1,1.387,1.113,4.34,4.34,0,0,1,.762,1.593,7.223,7.223,0,0,1,.234,1.854v6.834a.521.521,0,0,1-.172.4.666.666,0,0,1-.893,0,.514.514,0,0,1-.179-.4V151.44a7.683,7.683,0,0,1-1.635,1.36,4.111,4.111,0,0,1-2.253.611,4.608,4.608,0,0,1-1.4-.206,3.25,3.25,0,0,1-1.14-.632,2.856,2.856,0,0,1-.762-1.065,3.892,3.892,0,0,1-.275-1.518,2.844,2.844,0,0,1,1.669-2.775,6.219,6.219,0,0,1,1.9-.543,17.9,17.9,0,0,1,2.459-.158h1.4v-.673a5.523,5.523,0,0,0-.179-1.36,3.739,3.739,0,0,0-.57-1.229,2.911,2.911,0,0,0-1.01-.879,3.081,3.081,0,0,0-1.5-.337,4.506,4.506,0,0,0-1.078.117,5.48,5.48,0,0,0-.776.247,5.783,5.783,0,0,0-.529.247.754.754,0,0,1-.336.117.459.459,0,0,1-.426-.247.915.915,0,0,1-.144-.453.575.575,0,0,1,.3-.426,3.258,3.258,0,0,1,.776-.391,7.686,7.686,0,0,1,1.078-.275,7,7,0,0,1,1.188-.1Zm3.214,6.683h-1.271c-.639,0-1.25.021-1.841.062a5.807,5.807,0,0,0-1.566.309,2.429,2.429,0,0,0-1.085.728,1.941,1.941,0,0,0-.4,1.284,2.113,2.113,0,0,0,.714,1.772,2.788,2.788,0,0,0,1.772.556,3.405,3.405,0,0,0,1.332-.275,4.368,4.368,0,0,0,1.174-.7,4.511,4.511,0,0,0,.845-.907,1.663,1.663,0,0,0,.323-.92v-1.916Z" transform="translate(-314.816 -133.418)"/>
          <path id="Path_19426" data-name="Path 19426" d="M480.721,152.7a.57.57,0,0,1-.179.391.621.621,0,0,1-.467.179.594.594,0,0,1-.453-.179.579.579,0,0,1-.172-.391V141.563a.46.46,0,0,1,.172-.378.665.665,0,0,1,.453-.144.69.69,0,0,1,.44.144.466.466,0,0,1,.179.378v1.3a4.054,4.054,0,0,1,1.284-1.36,3.719,3.719,0,0,1,2.191-.611,4.212,4.212,0,0,1,1.772.378,4.767,4.767,0,0,1,2.486,2.514,4.661,4.661,0,0,1,.378,1.854V152.7a.481.481,0,0,1-.206.426.764.764,0,0,1-.44.144.708.708,0,0,1-.426-.144.5.5,0,0,1-.192-.426v-7.067a3.2,3.2,0,0,0-.275-1.3,3.816,3.816,0,0,0-.749-1.14,3.689,3.689,0,0,0-1.113-.8,3.091,3.091,0,0,0-1.332-.3,3.152,3.152,0,0,0-1.216.247,3.554,3.554,0,0,0-1.078.7,3.209,3.209,0,0,0-.762,1.113,3.793,3.793,0,0,0-.288,1.49v7.067Z" transform="translate(-320.3 -133.424)"/>
          <path id="Path_19427" data-name="Path 19427" d="M498.475,141.11a.729.729,0,0,1,.467.144.447.447,0,0,1,.179.378v11.133a.571.571,0,0,1-.179.392.621.621,0,0,1-.467.179.594.594,0,0,1-.453-.179.578.578,0,0,1-.172-.392V141.632a.46.46,0,0,1,.172-.378.665.665,0,0,1,.453-.144Z" transform="translate(-326.062 -133.493)"/>
        </g>
        <rect id="Rectangle_2687" data-name="Rectangle 2687" width="296.46" height="0.913" transform="translate(166.279 80.015)" fill="#c5222a"/>
      </g>
    </g>
  </g>
</svg>
